<svg xmlns="http://www.w3.org/2000/svg" xmlns:xlink="http://www.w3.org/1999/xlink" version="1.1" x="0px" y="0px" viewBox="0 0 100 125" enable-background="new 0 0 100 100" xml:space="preserve"><g display="none"><rect x="-507.879" y="-285.155" display="inline" fill="#000000" width="1286.936" height="912.422"/></g><g><g><path d="M33.524,27.985l1.938,1.937c0.471,0.471,1.235,0.471,1.706,0l10.561-10.561c0.471-0.471,0.471-1.235,0-1.706l-1.938-1.938    c-0.471-0.471-1.235-0.471-1.706,0L33.524,26.279C33.053,26.75,33.053,27.514,33.524,27.985z"/><path d="M44.248,5.632C43.827,5.211,43.274,5,42.72,5c-0.553,0-1.107,0.211-1.528,0.632L9.238,37.585    c-0.843,0.843-0.843,2.214,0,3.057l2.46,2.46c0.843,0.843,2.214,0.843,3.057,0l31.953-31.953c0.843-0.843,0.843-2.214,0-3.057    L44.248,5.632z"/><path d="M82.758,52.686l-1.937-1.938c-0.471-0.471-1.235-0.471-1.706,0L68.554,61.308c-0.471,0.471-0.471,1.235,0,1.706    l1.937,1.938c0.471,0.471,1.235,0.471,1.706,0l10.561-10.561C83.229,53.92,83.229,53.157,82.758,52.686z"/><path d="M57.834,89.237c0.842,0.842,2.213,0.843,3.057,0l31.953-31.953c0.843-0.843,0.843-2.214,0-3.057l-2.46-2.46    c-0.421-0.421-0.975-0.632-1.528-0.632c-0.554,0-1.107,0.211-1.528,0.632L55.374,83.721c-0.407,0.406-0.63,0.949-0.63,1.528    s0.223,1.122,0.63,1.528L57.834,89.237z"/><path d="M66.772,10.852c-5.571,0-10.808,2.169-14.746,6.108l-4.359,4.359l29.491,29.491l4.359-4.359    c3.938-3.938,6.108-9.175,6.108-14.746c-0.001-5.57-2.17-10.807-6.108-14.746C77.578,13.021,72.341,10.851,66.772,10.852z     M79.311,35.685c-4.555,4.555-11.966,4.555-16.52,0c-4.554-4.554-4.554-11.965,0.001-16.52c4.554-4.554,11.965-4.554,16.519,0    C83.865,23.72,83.865,31.131,79.311,35.685z"/><path d="M59.482,68.484l15.06-15.06L45.052,23.934l-15.06,15.06c-0.423,0.423-0.796,0.887-1.133,1.374l29.249,29.249    C58.595,69.281,59.059,68.908,59.482,68.484z M57.807,58.394c-0.727,0.686-1.932,0.73-2.64,0.023L40.059,43.309    c-0.716-0.716-0.723-1.874-0.017-2.598l0.158-0.165c5.043-5.043,13.123-5.169,18.011-0.282c4.888,4.888,4.761,12.968-0.282,18.011    L57.807,58.394z"/><path d="M45.785,62.983c0.124-0.045,0.249-0.07,0.375-0.084L35.576,52.315c-0.014,0.126-0.038,0.251-0.083,0.375l-3.742,10.247    l3.787,3.787L45.785,62.983z"/><path d="M52.114,71.389c0.787,0.027,1.566-0.051,2.328-0.208l-6.51-6.51c-0.065,0.589-0.448,1.12-1.042,1.337l-8.84,3.228    l1.006,1.006c0.466,0.466,1.086,0.735,1.746,0.759L52.114,71.389z"/><path d="M27.086,46.361l0.389,11.314c0.023,0.66,0.293,1.28,0.758,1.745l1.007,1.007l3.228-8.84    c0.217-0.594,0.749-0.977,1.337-1.042l-6.511-6.511C27.138,44.795,27.06,45.574,27.086,46.361z"/><path d="M44.077,42.096l4.402,4.402l4.903-2.312c0.922-0.435,2.023-0.045,2.46,0.884c0.435,0.924,0.04,2.024-0.884,2.46    l-3.701,1.745l5.116,5.116c2.527-3.602,2.28-8.457-0.776-11.514C52.53,39.813,47.652,39.575,44.077,42.096z"/><path d="M65.406,21.78c-3.113,3.113-3.113,8.177-0.001,11.29c3.113,3.113,8.177,3.113,11.29,0    c3.112-3.112,3.112-8.177-0.001-11.29C73.583,18.668,68.519,18.668,65.406,21.78z M74.935,31.454    c-0.735,0.659-1.852,0.622-2.541-0.067c-0.024-0.024-0.047-0.048-0.07-0.074c-0.682-0.76-0.618-1.929,0.141-2.611    c0.962-0.862,1.168-2.557,0.443-3.626c-0.573-0.845-0.353-1.995,0.492-2.568c0.845-0.573,1.993-0.355,2.568,0.492    C77.719,25.579,77.255,29.372,74.935,31.454z"/><path fill="#000000" d="M21.854,63.257L10.528,74.583c-0.828,0.828-0.828,2.172,0,3c0.415,0.414,0.958,0.622,1.501,0.622    c0.543,0,1.086-0.207,1.501-0.622l11.326-11.327c0.828-0.828,0.828-2.172,0-3C24.026,62.428,22.683,62.428,21.854,63.257z"/><path fill="#000000" d="M7.145,94.378C7.559,94.793,8.103,95,8.645,95c0.543,0,1.086-0.207,1.501-0.622L31.374,73.15    c0.828-0.828,0.828-2.172,0-3c-0.829-0.829-2.173-0.829-3.002,0L7.145,91.378C6.317,92.206,6.317,93.55,7.145,94.378z"/><path fill="#000000" d="M27.871,86.267c0.414,0.414,0.958,0.622,1.501,0.622c0.543,0,1.086-0.207,1.501-0.622l7.596-7.596    c0.828-0.828,0.828-2.172,0-3c-0.829-0.829-2.173-0.829-3.001,0l-7.596,7.596C27.044,84.095,27.044,85.438,27.871,86.267z"/></g></g></svg>